<?xml version="1.0" encoding="utf-8"?>
<!-- Generator: Adobe Illustrator 26.0.2, SVG Export Plug-In . SVG Version: 6.00 Build 0)  -->
<svg version="1.1" id="logo" xmlns="http://www.w3.org/2000/svg" xmlns:xlink="http://www.w3.org/1999/xlink" x="0px" y="0px"
	 viewBox="0 0 212.8 26.9" style="enable-background:new 0 0 212.8 26.9;" xml:space="preserve">
<style type="text/css">
	.st0{fill:#E6E6E6;}
</style>
<g>
	<path id="plane" class="st0" d="M106.4,17.4h2.5l22.4-17.2c0.4-0.4,0.9,0.1,0.5,0.5l-21,16.7l100.8,0.6c1.6,0,1.6,1.2,0,1.2
		l-69,0.8v1c0,1.3-2.4,1.3-2.4,0V20h-29.6c0,3.2-0.1,4.5-0.1,5.1c-0.1,0.6-0.2,1.8-1.3,1.8h-2.7h-2.7c-1.1,0-1.3-1.2-1.3-1.8
		c-0.1-0.6-0.2-1.9-0.1-5.1H72.6v0.9c0,1.3-2.4,1.3-2.4,0v-1l-69-0.8c-1.6,0-1.6-1.2,0-1.2L102,17.4L81,0.6
		c-0.4-0.4,0.1-0.9,0.5-0.5l22.4,17.2H106.4z"/>
</g>
</svg>
