<?xml version="1.0" encoding="utf-8"?>
<!-- Generator: Adobe Illustrator 26.0.3, SVG Export Plug-In . SVG Version: 6.00 Build 0)  -->
<svg version="1.1" id="Layer_1" xmlns="http://www.w3.org/2000/svg" xmlns:xlink="http://www.w3.org/1999/xlink" x="0px" y="0px"
	 viewBox="0 0 84.6 65.5" style="enable-background:new 0 0 84.6 65.5;" xml:space="preserve">
<style type="text/css">
	.st0{fill:#FFFFFF;}
</style>
<g id="Layer_2_00000169551300514127627260000003027035968451568019_">
	<g id="White_on_blue">
		<g id="Logo_above_WHITE">
			<path class="st0" d="M62.1,32.8c0.3,5.8,2.8,11.2,6.9,15.2c3.5,3.4,8.1,5.6,12.9,6.1c1.5,0.2,2.6,1.5,2.6,3v5.4c0,1.7-1.3,3-3,3
				h-54c-1.7,0-3-1.3-3-3v-5.4c0-1.5,1.1-2.8,2.7-3c11.3-1.3,19.8-10.9,19.8-22.3c0-5.9-2.3-7.5-6-7.5c-4.1,0-9.9,1.9-16.4,1.9V3
				c0-1.7,1.3-3,3-3h53.9c1.7,0,3,1.3,3,3v5.4c0,1.5-1.1,2.8-2.6,3C71,12.6,61.9,21.7,62.1,32.8z"/>
			<path class="st0" d="M20.6,11.2H3c-1.7,0-3,1.3-3,3l0,0c0,6.6,5.4,12,12,12h8.6L20.6,11.2z"/>
		</g>
	</g>
</g>
</svg>
