<?xml version="1.0" encoding="utf-8"?>
<!-- Generator: Adobe Illustrator 26.0.2, SVG Export Plug-In . SVG Version: 6.00 Build 0)  -->
<svg version="1.1" id="Layer_1" xmlns="http://www.w3.org/2000/svg" xmlns:xlink="http://www.w3.org/1999/xlink" x="0px" y="0px"
	 viewBox="0 0 329 43.1" style="enable-background:new 0 0 329 43.1;" xml:space="preserve">
<style type="text/css">
	.st0{fill:#FFFFFF;}
</style>
<g id="Layer_2_00000176014932631035097230000000281822996293877646_">
	<g id="White_on_blue">
		<g id="Logo_above_WHITE">
			<path class="st0" d="M9.9,1v41c0,0.6-0.4,1-1,1H1c-0.6,0-1-0.4-1-1V1c0-0.6,0.4-1,1-1h7.9C9.5,0,9.9,0.5,9.9,1z"/>
			<path class="st0" d="M27,1v32.7c0,0.6,0.4,1,1,1h11.3c0.6,0,1,0.4,1,1v6.4c0,0.6-0.4,1-1,1H18c-0.6,0-1-0.4-1-1v-41
				c0-0.6,0.4-1,1-1h8C26.5,0,27,0.5,27,1z"/>
			<path class="st0" d="M45.6,41.9l6.6-41.1c0.1-0.5,0.5-0.8,1-0.8h6.7c0.4,0,0.8,0.2,0.9,0.6l9.5,22.9c0.2,0.5,0.8,0.7,1.3,0.5
				c0.2-0.1,0.4-0.3,0.5-0.5l9.5-22.9C81.9,0.3,82.3,0,82.7,0h6.7c0.5,0,0.9,0.4,1,0.8L97,41.9c0.1,0.5-0.3,1.1-0.8,1.1
				c-0.1,0-0.1,0-0.2,0h-7.9c-0.5,0-0.9-0.4-1-0.9L84.3,21c-0.1-0.5-0.6-0.9-1.1-0.9c-0.4,0-0.7,0.3-0.8,0.6l-9.1,21.7
				c-0.2,0.4-0.5,0.6-0.9,0.6h-2.2c-0.4,0-0.8-0.2-0.9-0.6l-9.1-21.7c-0.2-0.5-0.8-0.8-1.3-0.6c-0.3,0.1-0.6,0.4-0.6,0.8l-2.8,21.2
				c-0.1,0.5-0.5,0.9-1,0.9h-7.9c-0.6,0-1-0.5-1-1C45.6,42,45.6,42,45.6,41.9z"/>
			<path class="st0" d="M131.5,34.9h-14.9c-0.4,0-0.8,0.2-0.9,0.6l-2.8,6.9c-0.2,0.4-0.5,0.6-0.9,0.6h-8.2c-0.6,0-1-0.4-1-1
				c0-0.1,0-0.3,0.1-0.4l16.5-41.1c0.2-0.4,0.5-0.6,0.9-0.6h7.7c0.4,0,0.8,0.2,0.9,0.6l16.2,41.1c0.2,0.5-0.1,1.1-0.6,1.3
				c-0.1,0-0.2,0.1-0.4,0.1H136c-0.4,0-0.8-0.2-0.9-0.6l-2.7-6.9C132.2,35.2,131.9,34.9,131.5,34.9z M128.9,25.9l-3.9-10.6
				c-0.2-0.5-0.8-0.8-1.3-0.6c-0.3,0.1-0.5,0.3-0.6,0.6l-3.9,10.6c-0.2,0.5,0.1,1.1,0.6,1.3c0.1,0,0.2,0.1,0.3,0.1h7.8
				c0.6,0,1-0.5,1-1C129,26.1,129,26,128.9,25.9L128.9,25.9z"/>
			<path class="st0" d="M165.9,0c5.5,0,8.9,1.8,11,3.7c2.5,2.6,3.9,6,3.7,9.6c0.1,3.3-1.1,6.4-3.4,8.8c-1.3,1.3-2.9,2.3-4.7,2.9
				c-0.5,0.2-0.8,0.8-0.6,1.3c0,0.1,0.1,0.2,0.1,0.3l11.2,14.9c0.3,0.4,0.2,1.1-0.2,1.4c-0.2,0.1-0.4,0.2-0.6,0.2h-9.6
				c-0.3,0-0.6-0.2-0.8-0.4l-9.5-13.9c-0.3-0.5-0.9-0.6-1.4-0.3c-0.3,0.2-0.4,0.5-0.4,0.8v12.7c0,0.6-0.4,1-1,1h-7.9
				c-0.6,0-1-0.4-1-1v-41c0-0.6,0.4-1,1-1L165.9,0z M160.7,18.6c0,0.6,0.4,1,1,1h1.3c1.8,0,4.3-0.2,5.9-1.9c1.1-1.1,1.7-2.6,1.6-4.2
				c0.1-1.7-0.7-3.3-2-4.4c-1.6-1.2-4.2-1.4-5.5-1.4h-1.3c-0.6,0-1,0.4-1,1L160.7,18.6z"/>
			<path class="st0" d="M199.5,1v41c0,0.6-0.4,1-1,1h-7.9c-0.6,0-1-0.4-1-1V1c0-0.6,0.4-1,1-1h7.9C199,0,199.5,0.5,199.5,1z"/>
			<path class="st0" d="M206.6,42.1v-41c0-0.6,0.4-1,1-1h7.2c0.3,0,0.6,0.1,0.8,0.3l21.3,25.3c0.4,0.4,1,0.5,1.4,0.1
				c0.2-0.2,0.4-0.5,0.4-0.8v-24c0-0.6,0.4-1,1-1h7.9c0.6,0,1,0.4,1,1v41c0,0.6-0.4,1-1,1h-7.2c-0.3,0-0.6-0.1-0.8-0.4l-21.3-25.4
				c-0.4-0.4-1-0.5-1.4-0.1c-0.2,0.2-0.3,0.5-0.4,0.8v24.1c0,0.6-0.4,1-1,1h-7.9C207,43.1,206.6,42.6,206.6,42.1
				C206.6,42.1,206.6,42.1,206.6,42.1z"/>
			<path class="st0" d="M278.9,8.4h-12.4c-0.6,0-1,0.4-1,1v6.3c0,0.6,0.4,1,1,1h11.7c0.6,0,1,0.4,1,1v6.4c0,0.6-0.4,1-1,1h-11.7
				c-0.6,0-1,0.4-1,1v7.6c0,0.6,0.4,1,1,1h12.4c0.6,0,1,0.4,1,1v6.4c0,0.6-0.4,1-1,1h-22.3c-0.6,0-1-0.4-1-1v-41c0-0.6,0.4-1,1-1
				h22.3c0.6,0,1,0.4,1,1v6.4C279.9,8,279.5,8.4,278.9,8.4z"/>
			<path class="st0" d="M287,42.1v-41c0-0.6,0.4-1,1-1h7.2c0.3,0,0.6,0.1,0.8,0.3l21.3,25.3c0.4,0.4,1,0.5,1.4,0.1
				c0.2-0.2,0.3-0.5,0.4-0.8v-24c0-0.6,0.4-1,1-1h8c0.6,0,1,0.4,1,1v41c0,0.6-0.4,1-1,1h-7.2c-0.3,0-0.6-0.1-0.8-0.4l-21.3-25.4
				c-0.4-0.4-1-0.4-1.4-0.1c-0.2,0.2-0.3,0.4-0.3,0.7V42c0,0.6-0.4,1-1,1h-8C287.5,43,287,42.6,287,42.1z"/>
		</g>
	</g>
</g>
</svg>
