<svg xmlns="http://www.w3.org/2000/svg" viewBox="0 0 328.98 134.14"><defs><style>.cls-1{fill:#fff;}</style></defs><g id="Layer_2" data-name="Layer 2"><g id="White_on_blue" data-name="White on blue"><g id="Logo_above_WHITE" data-name="Logo above // WHITE"><path class="cls-1" d="M172.08,32.75A23.42,23.42,0,0,0,179,48a22.28,22.28,0,0,0,12.94,6.12,3,3,0,0,1,2.63,3v5.41a3,3,0,0,1-3,3H137.62a3,3,0,0,1-3-3V57.1a3,3,0,0,1,2.66-3,22.46,22.46,0,0,0,19.8-22.3c0-5.92-2.29-7.47-6-7.47-4.1,0-9.94,1.85-16.42,1.85V3a3,3,0,0,1,3-3h53.91a3,3,0,0,1,3,3V8.41a3,3,0,0,1-2.63,3C181,12.65,171.91,21.66,172.08,32.75Z"/><path class="cls-1" d="M130.63,11.23H113a3,3,0,0,0-3,3h0a12,12,0,0,0,12,12h8.61Z"/><path class="cls-1" d="M9.94,92.1v41a1,1,0,0,1-1,1H1a1,1,0,0,1-1-1v-41a1,1,0,0,1,1-1H8.94A1,1,0,0,1,9.94,92.1Z"/><path class="cls-1" d="M27,92.1v32.65a1,1,0,0,0,1,1H39.32a1,1,0,0,1,1,1v6.39a1,1,0,0,1-1,1H18a1,1,0,0,1-1-1v-41a1,1,0,0,1,1-1H26A1,1,0,0,1,27,92.1Z"/><path class="cls-1" d="M45.6,133l6.58-41.05a1,1,0,0,1,1-.84h6.74a1,1,0,0,1,.92.61l9.54,22.92a1,1,0,0,0,1.84,0l9.54-22.92a1,1,0,0,1,.92-.61h6.74a1,1,0,0,1,1,.84L97,133a1,1,0,0,1-1,1.15H88.11a1,1,0,0,1-1-.86L84.3,112.11a1,1,0,0,0-1.92-.25l-9.09,21.67a1,1,0,0,1-.92.61H70.21a1,1,0,0,1-.92-.61L60.2,111.86a1,1,0,0,0-1.92.25l-2.82,21.17a1,1,0,0,1-1,.86H46.58A1,1,0,0,1,45.6,133Z"/><path class="cls-1" d="M131.46,126H116.55a1,1,0,0,0-.93.63l-2.79,6.88a1,1,0,0,1-.92.62h-8.17a1,1,0,0,1-.93-1.37l16.55-41.05a1,1,0,0,1,.93-.62H128a1,1,0,0,1,.93.63l16.18,41.05a1,1,0,0,1-.93,1.36H136a1,1,0,0,1-.93-.63l-2.72-6.87A1,1,0,0,0,131.46,126Zm-2.53-9-3.86-10.56a1,1,0,0,0-1.88,0l-3.91,10.56a1,1,0,0,0,.93,1.35H128A1,1,0,0,0,128.93,117.05Z"/><path class="cls-1" d="M165.88,91.1c5.48,0,8.9,1.8,11,3.74a13,13,0,0,1,3.74,9.62,11.77,11.77,0,0,1-3.35,8.77,13.66,13.66,0,0,1-4.68,2.89,1,1,0,0,0-.47,1.54l11.17,14.88a1,1,0,0,1-.8,1.6h-9.6a1,1,0,0,1-.83-.43l-9.49-13.87a1,1,0,0,0-1.83.56v12.74a1,1,0,0,1-1,1h-7.93a1,1,0,0,1-1-1v-41a1,1,0,0,1,1-1Zm-5.17,18.55a1,1,0,0,0,1,1H163c1.81,0,4.26-.19,5.94-1.87a5.8,5.8,0,0,0,1.61-4.19,5.2,5.2,0,0,0-2-4.39c-1.61-1.23-4.19-1.36-5.48-1.36h-1.33a1,1,0,0,0-1,1Z"/><path class="cls-1" d="M199.49,92.1v41a1,1,0,0,1-1,1h-7.94a1,1,0,0,1-1-1v-41a1,1,0,0,1,1-1h7.94A1,1,0,0,1,199.49,92.1Z"/><path class="cls-1" d="M206.58,133.14v-41a1,1,0,0,1,1-1h7.18a1,1,0,0,1,.77.35l21.29,25.3a1,1,0,0,0,1.77-.64v-24a1,1,0,0,1,1-1h7.94a1,1,0,0,1,1,1v41a1,1,0,0,1-1,1h-7.18a1,1,0,0,1-.77-.35l-21.3-25.42a1,1,0,0,0-1.76.64v24.13a1,1,0,0,1-1,1h-7.94A1,1,0,0,1,206.58,133.14Z"/><path class="cls-1" d="M278.94,99.49H266.55a1,1,0,0,0-1,1v6.32a1,1,0,0,0,1,1h11.69a1,1,0,0,1,1,1v6.39a1,1,0,0,1-1,1H266.55a1,1,0,0,0-1,1v7.55a1,1,0,0,0,1,1h12.39a1,1,0,0,1,1,1v6.39a1,1,0,0,1-1,1H256.61a1,1,0,0,1-1-1v-41a1,1,0,0,1,1-1h22.33a1,1,0,0,1,1,1v6.39A1,1,0,0,1,278.94,99.49Z"/><path class="cls-1" d="M287,133.14v-41a1,1,0,0,1,1-1h7.18a1,1,0,0,1,.77.35l21.3,25.3a1,1,0,0,0,1.76-.64v-24a1,1,0,0,1,1-1H328a1,1,0,0,1,1,1v41a1,1,0,0,1-1,1H320.8a1,1,0,0,1-.77-.35l-21.29-25.42A1,1,0,0,0,297,109v24.13a1,1,0,0,1-1,1H288A1,1,0,0,1,287,133.14Z"/></g></g></g></svg>