<svg xmlns="http://www.w3.org/2000/svg" viewBox="0 0 434.05 65.51"><defs><style>.cls-1{fill:#fff;}</style></defs><g id="Layer_2" data-name="Layer 2"><g id="White_on_blue" data-name="White on blue"><g id="Logo_side_WHITE" data-name="Logo side // WHITE"><path class="cls-1" d="M62,32.75A23.33,23.33,0,0,0,68.9,48a22.35,22.35,0,0,0,12.94,6.12,3,3,0,0,1,2.64,3v5.41a3,3,0,0,1-3,3H27.58a3,3,0,0,1-3-3V57.1a3,3,0,0,1,2.67-3A22.47,22.47,0,0,0,47,31.82c0-5.92-2.29-7.47-6-7.47-4.1,0-9.94,1.85-16.43,1.85V3a3,3,0,0,1,3-3h53.9a3,3,0,0,1,3,3V8.41a3,3,0,0,1-2.64,3C71,12.65,61.86,21.66,62,32.75Z"/><path class="cls-1" d="M20.59,11.23H3a3,3,0,0,0-3,3H0a12,12,0,0,0,12,12h8.61Z"/><path class="cls-1" d="M115,12.23V53.28a1,1,0,0,1-1,1h-7.94a1,1,0,0,1-1-1v-41a1,1,0,0,1,1-1H114A1,1,0,0,1,115,12.23Z"/><path class="cls-1" d="M132,12.23V44.89a1,1,0,0,0,1,1h11.36a1,1,0,0,1,1,1v6.39a1,1,0,0,1-1,1h-21.3a1,1,0,0,1-1-1v-41a1,1,0,0,1,1-1H131A1,1,0,0,1,132,12.23Z"/><path class="cls-1" d="M150.66,53.12l6.58-41a1,1,0,0,1,1-.84H165a1,1,0,0,1,.93.62l9.53,22.91a1,1,0,0,0,1.85,0l9.53-22.91a1,1,0,0,1,.92-.62h6.75a1,1,0,0,1,1,.84l6.59,41.05a1,1,0,0,1-1,1.16h-7.89a1,1,0,0,1-1-.87l-2.82-21.16a1,1,0,0,0-1.91-.26l-9.1,21.67a1,1,0,0,1-.92.62h-2.15a1,1,0,0,1-.93-.62L165.26,32a1,1,0,0,0-1.91.26l-2.82,21.16a1,1,0,0,1-1,.87h-7.89A1,1,0,0,1,150.66,53.12Z"/><path class="cls-1" d="M236.52,46.15H221.61a1,1,0,0,0-.93.62l-2.78,6.88a1,1,0,0,1-.93.63H208.8a1,1,0,0,1-.93-1.38l16.56-41a1,1,0,0,1,.92-.63h7.75a1,1,0,0,1,.93.63l16.18,41.05a1,1,0,0,1-.93,1.37h-8.17a1,1,0,0,1-.93-.63l-2.73-6.87A1,1,0,0,0,236.52,46.15Zm-2.52-9-3.87-10.57a1,1,0,0,0-1.88,0l-3.91,10.56a1,1,0,0,0,.94,1.35h7.78A1,1,0,0,0,234,37.19Z"/><path class="cls-1" d="M270.94,11.23c5.49,0,8.91,1.81,11,3.74a13,13,0,0,1,3.75,9.62,11.77,11.77,0,0,1-3.36,8.78,13.77,13.77,0,0,1-4.67,2.89,1,1,0,0,0-.48,1.54l11.18,14.88a1,1,0,0,1-.8,1.6h-9.61a1,1,0,0,1-.82-.44L267.6,40a1,1,0,0,0-1.82.57V53.28a1,1,0,0,1-1,1h-7.94a1,1,0,0,1-1-1v-41a1,1,0,0,1,1-1Zm-5.16,18.56a1,1,0,0,0,1,1H268c1.8,0,4.26-.2,5.93-1.88a5.74,5.74,0,0,0,1.62-4.19,5.23,5.23,0,0,0-2-4.39C272,19.1,269.39,19,268.1,19h-1.32a1,1,0,0,0-1,1Z"/><path class="cls-1" d="M304.56,12.23V53.28a1,1,0,0,1-1,1h-7.94a1,1,0,0,1-1-1v-41a1,1,0,0,1,1-1h7.94A1,1,0,0,1,304.56,12.23Z"/><path class="cls-1" d="M311.64,53.28v-41a1,1,0,0,1,1-1h7.18a1,1,0,0,1,.77.36l21.3,25.3a1,1,0,0,0,1.76-.65v-24a1,1,0,0,1,1-1h7.94a1,1,0,0,1,1,1V53.28a1,1,0,0,1-1,1h-7.18a1,1,0,0,1-.77-.36L323.35,28.5a1,1,0,0,0-1.77.65V53.28a1,1,0,0,1-1,1h-7.94A1,1,0,0,1,311.64,53.28Z"/><path class="cls-1" d="M384,19.62H371.62a1,1,0,0,0-1,1V27a1,1,0,0,0,1,1H383.3a1,1,0,0,1,1,1v6.39a1,1,0,0,1-1,1H371.62a1,1,0,0,0-1,1v7.55a1,1,0,0,0,1,1H384a1,1,0,0,1,1,1v6.39a1,1,0,0,1-1,1H361.68a1,1,0,0,1-1-1v-41a1,1,0,0,1,1-1H384a1,1,0,0,1,1,1v6.39A1,1,0,0,1,384,19.62Z"/><path class="cls-1" d="M392.1,53.28v-41a1,1,0,0,1,1-1h7.18a1,1,0,0,1,.76.36l21.3,25.3a1,1,0,0,0,1.77-.65v-24a1,1,0,0,1,1-1h7.94a1,1,0,0,1,1,1V53.28a1,1,0,0,1-1,1h-7.19a1,1,0,0,1-.76-.36L403.8,28.5a1,1,0,0,0-1.77.65V53.28a1,1,0,0,1-1,1H393.1A1,1,0,0,1,392.1,53.28Z"/></g></g></g></svg>