<?xml version="1.0" encoding="utf-8"?>
<!-- Generator: Adobe Illustrator 26.0.2, SVG Export Plug-In . SVG Version: 6.00 Build 0)  -->
<svg version="1.1" id="Layer_1" xmlns="http://www.w3.org/2000/svg" xmlns:xlink="http://www.w3.org/1999/xlink" x="0px" y="0px"
	 viewBox="0 0 778 234.7" style="enable-background:new 0 0 778 234.7;" xml:space="preserve">
<style type="text/css">
	.st0{fill:#FFFFFF;}
</style>
<path class="st0" d="M389.4,0c0.6,3,1.7,6,1.8,9.1c0.5,11.3,0.8,22.6,1,34c0.4,26.7,0.7,53.4,1.1,80.2c0.1,4.7,0.1,4.6,4.5,6.2
	c9.6,3.6,15.2,10.9,18.9,20.1c0.6,1.5,1.1,3,1.7,4.7c40.4-4.5,80.8-9,121.2-13.5c0.1,0.3,0.1,0.5,0.2,0.8c-2.3,0.7-4.5,1.7-6.9,2.1
	c-11.6,1.9-23.2,3.6-34.8,5.3c-25.7,3.9-51.2,8.3-76.4,14.5c-0.5,0.1-0.9,0.3-1.6,0.5c0,6.6,0,13.3,0,20.3c0.4,0,1.2,0,1.9-0.1
	c37.4-7.4,75.1-13.8,112.8-19.2c33.3-4.7,66.6-9.1,99.9-13.6c20.4-2.7,40.8-5.6,61.3-7.8c20.1-2.2,40.2-3.7,60.4-5.5
	c7.2-0.6,14.3-1,21.5-1.5c0,0.3,0,0.6,0,1c-4.5,2.8-9.8,2.7-14.8,3.3c-15.9,1.9-31.9,3.5-47.8,5.6c-19.6,2.6-39.1,5.5-58.6,8.4
	c-12.8,1.9-25.5,4.1-38.5,6.2c0.2,2.7,0.4,5.3,0.6,8c4.4,1,8.3,2.9,11.1,6.5c4.9,6.1,5.4,14.5,1.2,21c-4.2,6.5-12.1,9.7-19.6,7.8
	c-7.3-1.8-13-8.4-13.5-15.6c-0.6-8.2,3.5-15.4,11-18.4c2.3-0.9,3.2-1.9,2.9-4.3c-0.1-1.2,0-2.5,0-4c-30.2,5-60.3,9.9-90.7,14.9
	c0.2,2.3,0.3,4.6,0.5,7.1c0.9,0.3,1.7,0.5,2.5,0.8c8.2,2.5,13.7,10.7,12.6,18.9c-1.2,9.3-8.3,15.9-17.2,16.2
	c-8.9,0.3-16.6-5.7-18.4-14.4c-1.7-8.3,2.6-16.9,10.5-19.9c2.6-1,3.3-2.3,3.2-4.7c0-0.9,0-1.7,0-3c-3.9,0.6-7.8,1-11.6,1.8
	c-21.1,4-41.2,11.5-61,19.6c-0.6,0.2-1.3,1.2-1.3,1.9c-0.1,8.1-0.1,16.3,0,24.4c0,0.5,0.5,0.9,0.8,1.4c0.2-0.5,0.6-1,0.7-1.5
	c0.1-0.6-0.2-1.5,0.2-1.9c0.7-0.8,1.6-1.7,2.4-1.7c0.8,0,2.1,1.2,2.2,1.9c0.2,2.9,0.2,5.9,0,8.8c-0.1,0.7-1.5,1.9-2.2,1.9
	c-0.9-0.1-2-1.1-2.4-2c-0.4-0.8-0.1-2-0.1-3.2c-2.3,0-4.4,0-6.8,0c0,1.1,0.3,2.2-0.1,2.9c-0.5,1-1.5,2.1-2.4,2.3
	c-1.4,0.3-2.3-0.8-2.3-2.3c0-2.6,0-5.3,0-7.9c0-1.5,0.7-2.5,2.3-2.5c1.7-0.1,2.4,0.9,2.6,2.5c0.1,0.9,0.4,1.8,0.7,2.7
	c0.3-0.9,0.7-1.9,0.8-2.8c1.2-6.8-0.9-12.5-6-17.1c-0.7-0.6-1.2-1.4-1.9-2.3c-1.7,0.7-3.3,1.4-4.8,2.2c-0.4,0.2-1,0.7-1.1,1.2
	c-1.4,5.8-5.1,8.4-11,8.2c0,3.6,0,7,0,11.1c0.7-0.8,1.2-1.1,1.3-1.5c0.2-0.7-0.2-1.6,0.1-2.1c0.6-0.9,1.6-2,2.4-2.1
	c0.8,0,2.2,1.2,2.3,2c0.3,2.8,0.2,5.6,0.1,8.4c0,1.5-1,2.6-2.4,2.2c-1-0.3-1.8-1.4-2.4-2.4c-0.4-0.7-0.1-1.7-0.1-2.8
	c-2.2,0-4.3,0-6.6,0c-0.1,1,0.2,2.1-0.2,2.9c-0.5,1-1.5,2.1-2.4,2.3c-1.4,0.3-2.3-0.8-2.3-2.3c0-2.7-0.2-5.4,0.1-8.1
	c0.1-0.8,1.5-2.3,2.1-2.2c0.9,0.1,1.9,1.2,2.5,2.2c0.5,0.8,0.6,1.9,0.8,2.9c0.3-1.1,0.7-2.2,0.8-3.3c0.1-2.1,0-4.3,0-6.5
	c-6.1,0-11.9,0-18.1,0c0,3.1,0,6,0,9c0,0.3,0.5,0.6,0.7,1c0.3-0.3,0.7-0.6,0.8-0.9c0.1-0.7-0.2-1.6,0.1-2.1c0.6-0.9,1.5-2.1,2.4-2.1
	c0.8,0,2.2,1.2,2.3,2c0.3,2.8,0.3,5.7,0,8.6c-0.1,0.8-1.5,2-2.3,2c-0.8,0-1.9-1.2-2.3-2.1c-0.4-0.8-0.1-1.9-0.1-3
	c-2.3,0-4.4,0-6.8,0c0,0.9,0,1.8,0,2.7c0,1.5-0.8,2.4-2.3,2.5c-1.5,0.1-2.5-0.7-2.5-2.2c-0.1-2.8-0.1-5.6,0-8.4c0-1.5,1-2.4,2.5-2.2
	c1.5,0.1,2.2,1,2.3,2.5c0.1,0.9,0.4,1.8,0.6,2.7c0.3-0.9,0.8-1.9,0.8-2.8c0.1-2.3,0-4.6,0-7.1c-6,0-11.8,0-17.9,0c0,2.9,0,5.8,0,8.7
	c0,0.4,0.5,0.7,0.8,1.1c0.2-0.3,0.6-0.7,0.6-1c0.1-0.8-0.2-1.8,0.2-2.3c0.6-0.8,1.6-1.7,2.4-1.7c0.8,0,2.1,1.2,2.1,2
	c0.3,2.9,0.3,5.8,0,8.6c-0.1,0.8-1.5,2.1-2.3,2.1c-0.8,0-1.9-1.1-2.4-2c-0.4-0.8-0.1-2-0.1-3.2c-2.3,0-4.4,0-6.6,0c0,1,0,2-0.2,3
	c-0.2,1.4-1,2.4-2.5,2.3c-1.5-0.1-2.3-1-2.3-2.5c0-2.6,0-5.3,0-7.9c0-1.5,0.8-2.4,2.3-2.5c1.7-0.1,2.4,1,2.6,2.5
	c0.1,0.9,0.3,1.8,0.5,2.8c0.3-0.1,0.5-0.1,0.8-0.2c0-3.4,0-6.8,0-10.3c-0.9-0.1-1.6-0.3-2.4-0.4c-4.2-0.3-6.9-2.6-7.9-6.5
	c-0.9-3.2-3.6-3.5-5.9-4.6c-0.3-0.1-1.1,0.4-1.5,0.8c-2.2,2.6-4.3,5.2-6.4,7.8c-0.3,0.4-0.7,1-0.7,1.5c-0.1,3.9,0,7.8,0.5,12
	c0.3-0.3,0.8-0.6,0.9-1c0.2-0.6-0.2-1.4,0.1-1.9c0.7-0.9,1.5-2.1,2.4-2.4c1.4-0.4,2.4,0.8,2.4,2.3c0.1,2.7,0.1,5.4,0,8.1
	c0,1.5-1,2.7-2.4,2.3c-1-0.3-1.9-1.4-2.4-2.4c-0.4-0.7-0.1-1.7-0.1-2.8c-2.2,0-4.3,0-6.7,0c0,1,0,1.9,0,2.9
	c-0.1,1.5-0.9,2.4-2.4,2.4c-1.5,0-2.4-0.9-2.4-2.4c-0.1-2.7-0.1-5.4,0-8.1c0-1.5,1-2.6,2.4-2.3c0.9,0.2,1.8,1.3,2.3,2.2
	c0.4,0.9,0.3,2,0.4,3c0.3,0,0.6-0.1,1-0.1c0.1-0.7,0.2-1.5,0.2-2.2c0-7.7,0-15.3,0-23c0-1.5-0.4-2.3-1.8-2.8
	c-18.6-7.5-37.3-14.6-57-18.6c-4.9-1-9.9-1.7-15.1-2.6c0.2,2.3,0.3,4.2,0.5,6.3c4.4,1,8.2,3,11.1,6.5c5,6.3,5.3,14.8,0.9,21.4
	c-4.3,6.4-12.6,9.4-20.1,7.1c-7.5-2.2-12.8-9.3-12.9-17.2c-0.1-7.4,4.7-14.4,11.9-16.9c1.7-0.6,2.3-1.4,2.3-3c0-1.7,0.2-3.3,0.3-5.1
	c-30.3-5-60.4-9.9-90.9-14.9c0.2,2.7,0.2,5.1,0.5,7.5c0.1,0.6,1.2,1.3,2,1.5c12,4.1,16.3,18.8,8.2,28.6c-4.7,5.8-12.8,8-19.9,5.5
	c-7.1-2.5-11.9-9.1-11.9-16.6c-0.1-8,4.4-14.7,11.7-17.1c2.3-0.8,2.9-1.9,2.8-4.1c-0.1-2,0.3-4.1,0.4-6.4
	c-6.9-1.1-13.8-2.3-20.6-3.4c-18.1-2.8-36.1-5.8-54.2-8.4c-17.3-2.4-34.7-4.4-52.1-6.5c-8.6-1-17.3-1.9-25.9-2.9
	c-2.5-0.3-5-0.7-6.8-3.2c3.5,0.2,7,0.3,10.5,0.6c20.4,1.7,40.8,3.2,61.1,5.2c16,1.6,32,3.8,48,5.9c17.8,2.3,35.6,4.6,53.5,7
	c20.3,2.7,40.5,5.4,60.8,8.4c19.1,2.8,38.2,5.7,57.3,8.9c21.6,3.7,43.2,7.8,64.8,11.7c0.6,0.1,1.2,0.2,1.7,0.2c0-6.8,0-13.6,0-20.6
	c-5.5-1.3-11-2.8-16.5-3.8c-23.8-4.3-47.6-8.4-71.5-12.5c-8.2-1.4-16.4-2.4-24.6-3.8c-2.4-0.4-4.7-1.4-7-2.1
	c0.1-0.3,0.1-0.6,0.2-0.8c40.4,4.5,80.7,9,121.2,13.5c4-12.7,10.8-22.9,25.2-26.1c0-5.9-0.1-11.9,0-17.8c0.3-23.9,0.5-47.7,1-71.6
	c0.2-11.2,0.8-22.3,1.4-33.5c0.1-1.8,0.9-3.5,1.4-5.3C388.7,0,389.1,0,389.4,0z M269.2,202c0-4.8-4-8.9-8.8-8.9
	c-4.9-0.1-9.1,4.1-9,9c0.1,4.8,4.2,8.8,9,8.8C265.1,210.8,269.2,206.8,269.2,202z M607.2,186.6c-0.1,5,3.8,9,8.8,9.1
	c4.8,0,8.9-3.9,8.9-8.7c0.1-4.8-3.9-8.8-8.7-9C611.4,177.9,607.3,181.8,607.2,186.6z M162.7,196.9c4.8-0.1,8.6-4,8.6-8.7
	c0-4.9-4-8.7-8.9-8.6c-4.7,0.1-8.6,4.2-8.5,8.8C153.9,193.1,158,197,162.7,196.9z M519,210.4c4.8,0,8.5-3.8,8.5-8.4
	c0-4.7-3.9-8.5-8.6-8.4c-4.6,0-8.3,3.8-8.4,8.4C510.5,206.6,514.2,210.4,519,210.4z M398.9,164.6c-1.4-4.9-1.6-5-6-4.5
	c-0.4,0-0.8,0.1-1.2,0.1c-2.6,0.3-1.7,2.2-1.8,3.7c-0.1,1.6,1,2.4,2.4,2.2C394.5,165.8,396.6,165.2,398.9,164.6z M379.2,164.7
	c2.1,0.5,4.2,1.2,6.4,1.4c0.7,0.1,2.2-0.9,2.2-1.4c0.1-1.4,0.1-3.5-0.7-4.1C383.6,158.3,380,160.2,379.2,164.7z M365,162.7
	c-3,2.6-4.8,18.8-2.5,20.4C363.3,176.4,364.1,169.8,365,162.7z M413.1,163c0.7,6.7,1.4,13.2,2.1,19.6c0,0.2,0.5,0.3,0.7,0.5
	C417.8,180.1,415.6,164.7,413.1,163z M340.6,201.5c0,3.2,0,6,0,9.3c2-2.5,3.8-4.6,5.6-6.9C344.2,203,342.5,202.3,340.6,201.5z
	 M431.7,203.9c1.9,2.3,3.6,4.4,5.6,6.9c0-3.4,0-6.2,0-9.3C435.4,202.3,433.7,203,431.7,203.9z M398.6,160c1.6,5.3,3.4,7.2,7.2,7.4
	C403.1,161.7,401,159.5,398.6,160z M372.2,167.5c4.2-0.7,5.8-2.4,7-7.4C377.1,159.4,374.2,162.4,372.2,167.5z M362.1,196.8
	c0.9,1.3,1.5,2.2,2.2,3c0.6,0.7,1.3,1.4,2.3,2.3c-2.7-4.7-5.1-9-7.5-13.3c3.1,6.5,2.3,13.4,1.9,20.4
	C363.4,205.4,360.8,201.2,362.1,196.8z M379,199.5c-0.3,0.8-0.6,1.8-0.9,2.7c-0.4,0.9-0.8,1.9-1.2,2.8c3.5,2.3,8,3.4,10.2,2.6
	c-3-0.8-6-1.7-9.2-2.5c0.7-1.7,1.2-3,1.6-4.1c2.6,0.8,5.1,1.5,7.6,2.2c0.1-0.2,0.1-0.4,0.2-0.6C384.5,201.6,381.8,200.6,379,199.5z
	 M418.8,188.9c-2.4,4.3-4.8,8.6-7.2,12.9c0.1,0.1,0.2,0.1,0.2,0.2c1.3-1.7,2.7-3.3,4.1-5.1c1,4.2-1.3,8.4,1,12.4
	C416.5,202.2,415.8,195.4,418.8,188.9z M390.9,202.5c0,0.2,0.1,0.5,0.1,0.7c2.4-0.7,4.8-1.5,7.3-2.3c0.5,1.2,1,2.5,1.6,4.2
	c-3.2,0.9-6.1,1.7-9.1,2.6c0.1,0.3,0.2,0.5,0.3,0.8c3.3-1,6.6-1.9,10-2.9c-1-2.5-1.7-4.3-2.3-5.9
	C396.1,200.6,393.5,201.5,390.9,202.5z M375.8,159.4c-1,0.2-1.6,0.2-1.8,0.4c-1.9,2-3.7,4.1-5.5,6.2c-0.2,0.2,0.2,1.3,0.3,1.3
	c0.6,0,1.6,0,1.9-0.3C372.3,164.7,373.9,162.3,375.8,159.4z M410.1,166.5c-2.7-2.2-4.1-5.5-7.3-6.8c1.2,2.6,2.7,4.9,4.3,7.2
	C407.9,168.1,408.9,167.9,410.1,166.5z M369.4,204.5c4.9,4.4,10.8,6.5,17.4,6.6c-2.9-0.9-6.1-1.4-9-2.4
	C375,207.6,372.2,205.9,369.4,204.5z M390.9,210.8c5.5,0.9,16.3-3.3,17.7-6.9C403.3,208.2,397.3,210,390.9,210.8z"/>
</svg>
